<svg preserveAspectRatio="none" overflow="visible" style="display: block;" width="37" height="37.0012" viewBox="0 0 37 37.0012" fill="none" xmlns="http://www.w3.org/2000/svg">
<g id="Group 2086379927">
<path id="Vector" d="M22.7003 0.00210222H7.59341C3.39937 0.00210222 0 3.4014 0 7.59533V29.408C0 33.6019 3.39937 37.0012 7.59341 37.0012H29.4066C33.6006 37.0012 37 33.6019 37 29.408V14.1185C36.6237 13.86 36.2621 13.5635 35.9278 13.2272L22.7003 0V0.00210222Z" fill="#9BEB26"/>
<path id="Vector_2" d="M30.1444 14.1186H36.8506L23.6231 0.891461C23.2868 0.555105 22.9273 0.260794 22.551 0.000118595V6.52332C22.551 10.7173 25.9504 14.1165 30.1444 14.1165V14.1186Z" fill="#6ABE36"/>
<path id="Vector_3" d="M14.9513 13.6937H9.85748C8.52674 13.6937 7.44826 12.6152 7.44826 11.2845C7.44826 9.95383 8.52674 8.87539 9.85748 8.87539H14.9513C16.282 8.87539 17.3605 9.95383 17.3605 11.2845C17.3605 12.6152 16.282 13.6937 14.9513 13.6937Z" fill="white"/>
<path id="Vector_4" d="M27.237 18.8671H9.76082C8.4825 18.8671 7.44624 19.9034 7.44624 21.1817V21.3709C7.44624 22.6492 8.4825 23.6854 9.76082 23.6854H27.237C28.5153 23.6854 29.5516 22.6492 29.5516 21.3709V21.1817C29.5516 19.9034 28.5153 18.8671 27.237 18.8671Z" fill="#EAFFC9"/>
</g>
</svg>
