<svg preserveAspectRatio="none" overflow="visible" style="display: block;" width="190" height="29.4239" viewBox="0 0 190 29.4239" fill="none" xmlns="http://www.w3.org/2000/svg">
<g id="Layer_1" clip-path="url(#clip0_0_4)">
<path id="Vector" d="M70.0943 22.5976V6.82635C70.0943 2.53699 72.3828 0 76.4695 0C80.5561 0 82.8447 2.53699 82.8447 6.82635V9.76874H79.8238V6.62365C79.8238 4.17166 78.5553 2.90316 76.5545 2.90316C74.5537 2.90316 73.2852 4.17166 73.2852 6.62365V22.8068C73.2852 25.2588 74.5537 26.5273 76.5545 26.5273C78.5553 26.5273 79.8238 25.2588 79.8238 22.8068V18.8052H82.8447V22.6041C82.8447 26.8542 80.5954 29.4305 76.4695 29.4305C72.3436 29.4305 70.0943 26.8542 70.0943 22.6041V22.5976Z" fill="black"/>
<path id="Vector_2" d="M86.6044 22.3556V7.02905C86.6044 2.49122 88.9321 0 93.143 0C97.3539 0 99.7209 2.49122 99.7209 7.02905V22.3556C99.7209 26.8935 97.3931 29.4239 93.143 29.4239C88.8929 29.4239 86.6044 26.8935 86.6044 22.3556ZM96.5366 22.5583V6.82635C96.5366 4.12589 95.3073 2.90316 93.143 2.90316C90.9787 2.90316 89.7952 4.12589 89.7952 6.82635V22.5583C89.7952 25.298 91.0245 26.5208 93.143 26.5208C95.2615 26.5208 96.5366 25.2915 96.5366 22.5583Z" fill="black"/>
<path id="Vector_3" d="M104.095 0.405396H108.712L112.922 23.2514L117.094 0.405396H121.75V29.012H118.683V5.15245L114.145 29.0185H111.445L106.907 5.15245V29.0185H104.089V0.405396H104.095Z" fill="black"/>
<path id="Vector_4" d="M126.451 0.405396H132.702C137.115 0.405396 139.155 2.73315 139.155 7.35598V9.80797C139.155 14.4243 137.115 16.7128 132.702 16.7128H129.635V29.012H126.444V0.405396H126.451ZM132.702 13.8162C134.951 13.8162 135.971 12.7961 135.971 9.97144V7.15328C135.971 4.33512 134.951 3.30856 132.702 3.30856H129.635V13.8096H132.702V13.8162Z" fill="black"/>
<path id="Vector_5" d="M150.69 22.9245H144.073L143.007 29.012H140.025L145.335 0.405396H149.624L154.979 29.012H151.749L150.69 22.9245ZM150.199 20.1456L147.342 4.04742L144.563 20.1456H150.199Z" fill="black"/>
<path id="Vector_6" d="M158.451 0.405396H162.538L168.998 20.8387V0.405396H171.901V29.012H168.592L161.361 5.76055V29.012H158.458V0.405396H158.451Z" fill="black"/>
<path id="Vector_7" d="M181.055 16.4709L175.295 0.411935H178.688L182.775 12.345L186.861 0.411935H190.007L184.246 16.4709V29.0185H181.055V16.4709Z" fill="black"/>
<g id="Group">
<path id="Vector_8" d="M0 0.405809H6.53865C10.9522 0.405809 12.9988 2.73357 12.9988 7.35639V22.0683C12.9988 26.6846 10.9588 29.0124 6.53865 29.0124H0V0.405809ZM6.46018 26.1158C8.70948 26.1158 9.80797 25.0107 9.80797 22.1926V7.19292C9.80797 4.37477 8.70294 3.30897 6.46018 3.30897H3.19086V26.1158H6.46018Z" fill="black"/>
<path id="Vector_9" d="M26.6908 22.9245H20.0671L19.0078 29.012H16.0262L21.3356 0.405396H25.625L30.9801 29.012H27.75L26.6908 22.9245ZM26.1938 20.1456L23.3299 4.04742L20.551 20.1456H26.1873H26.1938Z" fill="black"/>
<path id="Vector_10" d="M36.7407 16.4709L30.9801 0.405396H34.3737L38.4603 12.3384L42.547 0.405396H45.6921L39.9315 16.4643V29.012H36.7407V16.4643V16.4709Z" fill="black"/>
<path id="Vector_11" d="M55.7027 0.366164L49.818 4.17166V7.35598L54.7219 4.19127V29.0185H57.9128V0.366164H55.7027Z" fill="black"/>
</g>
</g>
<defs>
<clipPath id="clip0_0_4">
<rect width="190" height="29.4239" fill="white"/>
</clipPath>
</defs>
</svg>
